<?xml version="1.0"?>
<svg xmlns="http://www.w3.org/2000/svg" height="512px" viewBox="0 -10 511.99789 511" width="512px"><g><path d="m503.980469 217.957031c-16.828125-29.507812-27.25-61.589843-30.980469-95.351562-1.71875-15.554688-9.242188-29.691407-21.183594-39.804688-14.21875-12.042969-32.988281-17.667969-51.488281-15.445312-6.097656.734375-12.007813 2.320312-17.601563 4.632812.472657-6.03125.152344-12.144531-1.03125-18.167969-3.597656-18.285156-14.75-34.394531-30.601562-44.199218-13.308594-8.230469-29.078125-11.019532-44.402344-7.84375-33.265625 6.882812-66.996094 6.882812-100.257812 0-15.328125-3.175782-31.097656-.386719-44.40625 7.84375-15.847656 9.804687-27 25.914062-30.601563 44.199218-1.273437 6.476563-1.546875 13.054688-.90625 19.527344-5.957031-2.605468-12.296875-4.378906-18.847656-5.167968-18.503906-2.230469-37.269531 3.402343-51.488281 15.445312-11.945313 10.113281-19.464844 24.25-21.1875 39.804688-3.726563 33.765624-14.152344 65.84375-30.980469 95.351562-7.753906 13.59375-9.976563 29.453125-6.257813 44.65625 4.425782 18.105469 16.300782 33.6875 32.578126 42.761719 5.46875 3.046875 11.296874 5.277343 17.300781 6.6875-3.589844 4.363281-6.648438 9.1875-9.0625 14.390625-7.835938 16.90625-8.28125 36.496094-1.222657 53.742187 5.929688 14.484375 17.050782 26.007813 31.3125 32.445313 30.960938 13.984375 58.25 33.8125 81.109376 58.933594 10.535156 11.574218 24.933593 18.589843 40.539062 19.75 1.652344.125 3.304688.1875 4.949219.1875 16.882812 0 33.339843-6.40625 45.785156-17.957032 4.496094-4.175781 8.351563-8.933594 11.515625-14.089844 3.160156 5.15625 7.011719 9.914063 11.511719 14.089844 12.445312 11.554688 28.898437 17.957032 45.785156 17.957032 1.644531 0 3.300781-.0625 4.949219-.1875 15.609375-1.160157 30.003906-8.175782 40.539062-19.75 22.859375-25.125 50.148438-44.949219 81.109375-58.929688 14.261719-6.441406 25.382813-17.964844 31.3125-32.449219 7.058594-17.246093 6.613281-36.835937-1.222656-53.742187-2.582031-5.566406-5.914063-10.699219-9.839844-15.300782 5.882813-1.414062 11.59375-3.613281 16.957031-6.601562 16.277344-9.074219 28.152344-24.660156 32.578126-42.761719 3.714843-15.203125 1.492187-31.0625-6.261719-44.65625zm-352.976563-160.285156c2.570313-13.046875 10.210938-24.085937 21.519532-31.082031 8.949218-5.535156 19.554687-7.40625 29.863281-5.277344 35.945312 7.445312 72.402343 7.441406 108.347656 0 10.308594-2.128906 20.910156-.257812 29.863281 5.277344 11.308594 6.996094 18.949219 18.035156 21.515625 31.082031 2.570313 13.046875-.324219 26.15625-8.136719 36.914063l-81.691406 112.433593c-1.855468-.734375-3.777344-1.34375-5.746094-1.816406v-57.289063c4.511719-1.492187 8.75-4.027343 12.335938-7.609374 3.894531-3.898438 3.898438-10.214844 0-14.113282-3.898438-3.894531-10.214844-3.894531-14.109375 0-4.523437 4.523438-11.886719 4.523438-16.410156 0-3.898438-3.894531-10.214844-3.894531-14.109375 0-3.898438 3.898438-3.898438 10.214844 0 14.113282 3.582031 3.582031 7.824218 6.117187 12.335937 7.609374v57.289063c-1.972656.472656-3.890625 1.082031-5.746093 1.816406l-81.691407-112.433593c-7.816406-10.757813-10.707031-23.867188-8.140625-36.914063zm82.695313 189.160156c0-12.605469 10.253906-22.859375 22.863281-22.859375 12.605469 0 22.859375 10.253906 22.859375 22.859375s-10.253906 22.859375-22.859375 22.859375-22.863281-10.253906-22.863281-22.859375zm-212.558594 11.863281c-2.5-10.222656-1.003906-20.886718 4.210937-30.03125 18.183594-31.886718 29.449219-66.554687 33.480469-103.042968 1.15625-10.460938 6.214844-19.96875 14.246094-26.769532 10.148437-8.59375 23.007813-12.453124 36.207031-10.863281 13.203125 1.59375 24.777344 8.390625 32.59375 19.148438 1.089844 1.5 2.519532 2.597656 4.105469 3.28125l78.519531 108.074219c-1.644531 1.863281-3.136718 3.863281-4.445312 5.988281l-50.894532-16.535157c1.007813-3.082031 1.558594-6.367187 1.558594-9.777343 0-5.511719-4.46875-9.976563-9.976562-9.976563-5.511719 0-9.980469 4.464844-9.980469 9.976563 0 6.398437-5.203125 11.601562-11.601563 11.601562-5.511718 0-9.976562 4.46875-9.976562 9.976563 0 5.511718 4.464844 9.980468 9.976562 9.980468 6.269532 0 12.117188-1.847656 17.03125-5.015624l57.695313 18.746093c-.089844 1.117188-.144531 2.238281-.144531 3.375 0 .894531.035156 1.777344.089844 2.65625l-128.132813 41.636719c-.964844.015625-1.941406.171875-2.90625.484375-1.742187.566406-3.441406 1.222656-5.121094 1.921875-11.429687 2.667969-23.226562 1.03125-33.625-4.765625-11.617187-6.472656-19.753906-17.152344-22.910156-30.070313zm432.160156 114.765626c-3.988281 9.738281-11.464843 17.488281-21.058593 21.820312-33.457032 15.109375-62.949219 36.535156-87.65625 63.6875-7.082032 7.78125-16.765626 12.5-27.257813 13.28125-13.261719.992188-25.933594-3.449219-35.679687-12.496094-9.746094-9.042968-15.109376-21.351562-15.109376-34.648437v-65.617188c0-5.507812-4.46875-9.976562-9.980468-9.976562-5.507813 0-9.976563 4.46875-9.976563 9.976562v65.617188c0 13.296875-5.367187 25.601562-15.113281 34.648437s-22.417969 13.488282-35.675781 12.496094c-10.496094-.78125-20.175781-5.5-27.261719-13.28125-24.707031-27.152344-54.195312-48.578125-87.65625-63.6875-9.589844-4.332031-17.070312-12.082031-21.054688-21.820312-5.039062-12.308594-4.734374-25.730469.859376-37.792969 4.832031-10.429688 13-18.492188 23.296874-23.144531 1.292969-.335938 2.582032-.695313 3.863282-1.113282l131.855468-42.839844c1.269532 2.144532 2.722657 4.171876 4.335938 6.058594l-32.980469 45.394532c-3.90625-1.738282-8.226562-2.710938-12.769531-2.710938-5.507812 0-9.976562 4.46875-9.976562 9.980469 0 5.507812 4.46875 9.976562 9.976562 9.976562 3.191406 0 6.085938 1.292969 8.183594 3.386719.011718.007812.019531.019531.03125.027344 2.09375 2.101562 3.390625 4.996094 3.390625 8.1875 0 5.511718 4.464843 9.976562 9.976562 9.976562s9.976563-4.464844 9.976563-9.976562c0-5.546875-1.445313-10.761719-3.96875-15.296875l34.292968-47.199219c5.050782 2.105469 10.589844 3.273438 16.398438 3.273438 5.804688 0 11.34375-1.167969 16.394531-3.273438l34.292969 47.199219c-2.523438 4.535156-3.96875 9.75-3.96875 15.296875 0 5.511718 4.46875 9.976562 9.976562 9.976562 5.511719 0 9.980469-4.464844 9.980469-9.976562 0-3.191406 1.292969-6.085938 3.386719-8.1875.011719-.007813.023438-.019532.03125-.027344 2.101562-2.09375 4.992188-3.386719 8.183594-3.386719 5.511718 0 9.976562-4.46875 9.976562-9.976562 0-5.511719-4.464844-9.980469-9.976562-9.980469-4.542969 0-8.863282.972656-12.769532 2.710938l-32.980468-45.394532c1.707031-2 3.234375-4.15625 4.558594-6.445312l130.511718 42.40625c12.644532 4.105468 22.6875 13.011718 28.28125 25.078125 5.59375 12.0625 5.898438 25.484375.859375 37.792969zm37.558594-115.585938c-3.160156 12.914062-11.296875 23.59375-22.910156 30.066406s-24.976563 7.78125-37.621094 3.667969c0 0 0 0-.003906 0l-131.003907-42.566406c.035157-.730469.058594-1.46875.058594-2.210938 0-1.136719-.058594-2.257812-.148437-3.375l57.695312-18.746093c4.917969 3.167968 10.761719 5.015624 17.03125 5.015624 5.511719 0 9.976563-4.46875 9.976563-9.980468 0-5.507813-4.464844-9.976563-9.976563-9.976563-6.398437 0-11.601562-5.203125-11.601562-11.601562 0-5.511719-4.46875-9.976563-9.980469-9.976563-5.507812 0-9.976562 4.464844-9.976562 9.976563 0 3.410156.550781 6.695312 1.558593 9.777343l-50.894531 16.535157c-1.308594-2.128907-2.800781-4.125-4.445312-5.988281l81.5-112.175782c7.816406-10.757812 19.394531-17.558594 32.59375-19.152344 13.203124-1.585937 26.0625 2.269532 36.207031 10.863282 8.03125 6.800781 13.09375 16.308594 14.246093 26.769531 4.03125 36.488281 15.296876 71.15625 33.484376 103.046875 5.214843 9.140625 6.707031 19.804688 4.210937 30.03125zm0 0" data-original="#000000" class="active-path" fill="#000000"/><path d="m256.472656 309.601562c-2.625 0-5.199218 1.066407-7.066406 2.921876-1.855469 1.855468-2.914062 4.429687-2.914062 7.054687s1.058593 5.199219 2.914062 7.054687c1.867188 1.855469 4.429688 2.921876 7.066406 2.921876 2.621094 0 5.195313-1.066407 7.050782-2.921876 1.855468-1.855468 2.925781-4.429687 2.925781-7.054687s-1.070313-5.199219-2.925781-7.054687c-1.863282-1.855469-4.429688-2.921876-7.050782-2.921876zm0 0" data-original="#000000" class="active-path" fill="#000000"/></g> </svg>
